<svg width="83" height="18" viewBox="0 0 83 18" fill="none" xmlns="http://www.w3.org/2000/svg">
<path fill-rule="evenodd" clip-rule="evenodd" d="M1.16101 7.77174C1.2189 11.7663 1.17769 15.3991 1.06942 15.8448C0.960824 16.2901 0.545413 16.7904 0.146027 16.9561C-0.356394 17.1646 0.425369 17.2641 2.68201 17.279C5.72434 17.2989 5.89508 17.2648 5.21701 16.7749C4.52226 16.2732 4.48987 16.031 4.48987 11.3469V6.44417L5.55294 7.36385C6.13746 7.86924 8.67671 10.3402 11.1954 12.854L15.7747 17.425L15.9533 9.34998C16.0514 4.90877 16.1617 1.23679 16.1986 1.19057C16.2353 1.14434 16.5964 1.10386 17.0013 1.10116C17.4383 1.09812 17.5849 0.995225 17.3624 0.84813C17.156 0.71183 15.7953 0.649754 14.3381 0.710145C11.9869 0.807646 11.7439 0.876808 12.1783 1.3245C12.5675 1.72632 12.6673 2.83054 12.6673 6.73363V11.6377L9.8052 8.93062C8.23121 7.44145 6.28073 5.5147 5.47117 4.649C4.6616 3.78296 3.33686 2.49722 2.52729 1.79177L1.05536 0.508732L1.16101 7.77174ZM24.3698 0.683828C19.6564 0.784704 19.5668 0.800222 20.1686 1.42099C20.7276 1.99757 20.7872 2.68446 20.8235 8.98089C20.8621 15.724 20.8441 15.9251 20.1382 16.6035L19.413 17.3002H25.0433C31.3733 17.3002 30.916 17.4993 31.4453 14.5128L31.67 13.2433L30.3698 14.6815L29.0696 16.1194H26.6746H24.2792V12.9143V9.70928L25.8218 9.60706C27.5836 9.48999 28.6048 9.93364 29.0199 10.9964C29.2236 11.5176 29.3074 10.9927 29.3064 9.20322C29.3051 7.12769 29.2406 6.81056 28.9469 7.43942C28.523 8.34629 27.6918 8.61112 25.725 8.46639L24.2792 8.35978L24.1857 5.07038L24.0921 1.78097H26.5604C28.6022 1.78097 29.1229 1.89467 29.5743 2.43852C30.3083 3.32244 30.5585 3.07683 30.395 1.63287C30.2962 0.759402 30.1124 0.451712 29.7225 0.506029C29.4271 0.547189 27.0183 0.627149 24.3698 0.683828ZM42.5901 5.17125C41.5519 7.7714 40.5955 9.96704 40.4646 10.0504C40.3338 10.1337 39.6018 8.35371 38.8377 6.09498C37.7246 2.80558 37.5218 1.86667 37.8171 1.37849C38.1632 0.80731 37.999 0.768847 35.2216 0.768847H32.2565L33.0624 1.52794C33.5057 1.94561 34.1677 3.19795 34.5334 4.31128C35.0774 5.96678 38.3143 15.056 39.0388 16.9628C39.1935 17.369 39.2819 17.336 39.4883 16.7942C41.6471 11.1283 43.5711 6.56427 43.7523 6.67966C43.8776 6.75961 44.9753 9.14418 46.1915 11.9785C48.5717 17.5259 48.9731 18.2415 48.9783 16.946C48.9803 16.4912 49.9387 12.9312 51.1084 9.03453C52.5849 4.11426 53.4445 1.76916 53.9214 1.35925C54.5936 0.78133 54.5737 0.768847 52.967 0.768847C51.4836 0.768847 51.3426 0.83396 51.4983 1.44798C51.6762 2.15073 49.623 10.2153 49.2655 10.2153C49.1546 10.2153 48.1383 8.08448 47.0076 5.48063C45.8765 2.87643 44.8445 0.677753 44.7143 0.594759C44.5841 0.511765 43.6283 2.5711 42.5901 5.17125ZM58.5976 0.746242C58.2234 0.909194 57.5241 1.52389 57.0439 2.11227C56.3642 2.94559 56.1712 3.53971 56.1712 4.79778C56.1712 6.8642 56.8094 7.71 60.0486 9.93802C63.5394 12.3391 64.0215 12.8445 64.0215 14.1016C64.0215 15.5503 63.0716 16.3552 61.1627 16.5246C59.1308 16.7051 57.6156 15.7709 56.9022 13.8981C56.2929 12.2983 55.8565 12.691 55.849 14.8455C55.8447 16.1089 55.9648 16.3384 56.9072 16.865C58.3951 17.697 62.7867 17.6926 64.2812 16.8572C65.7188 16.0543 66.6357 14.4275 66.637 12.6772C66.6389 10.4269 66.1084 9.71299 62.7481 7.44516C61.0197 6.27885 59.4265 5.09669 59.2073 4.81802C58.0504 3.34706 59.4526 1.4436 61.6926 1.4436C63.3899 1.4436 64.1828 1.85047 64.8321 3.05456C65.323 3.96581 65.3266 3.95906 65.2468 2.28703L65.1664 0.600159L62.2225 0.525262C60.6033 0.484102 58.9721 0.583627 58.5976 0.746242ZM68.2839 2.11835C68.2924 3.42432 68.3454 3.54241 68.6647 2.96178C69.2348 1.92436 69.5881 1.79177 71.7901 1.78603L73.8344 1.78097L73.8295 8.7815C73.8266 12.6316 73.7163 15.9467 73.5842 16.1481C73.452 16.3495 73.0494 16.6865 72.6896 16.8971C72.1675 17.2024 72.6925 17.2817 75.2864 17.2901L78.5371 17.3002L77.8214 16.6123C77.1289 15.947 77.1054 15.693 77.1054 8.85268V1.78097H79.3679C81.4519 1.78097 81.6841 1.85418 82.3151 2.70875L83 3.63653L82.9146 2.14669L82.8296 0.656838L75.552 0.628498L68.2741 0.600159L68.2839 2.11835Z" fill="#C53030"/>
</svg>
